<?xml version="1.0" standalone="no"?>
<!DOCTYPE svg PUBLIC "-//W3C//DTD SVG 20010904//EN"
 "http://www.w3.org/TR/2001/REC-SVG-20010904/DTD/svg10.dtd">
<svg version="1.0" xmlns="http://www.w3.org/2000/svg"
 width="1290.000000pt" height="1290.000000pt" viewBox="0 0 1290.000000 1290.000000"
 preserveAspectRatio="xMidYMid meet">
<metadata>
Created by potrace 1.14, written by Peter Selinger 2001-2017
</metadata>
<g transform="translate(0.000000,1290.000000) scale(0.100000,-0.100000)"
fill="#000000" stroke="none">
<path d="M6208 12895 c-2 -1 -64 -5 -139 -9 -75 -4 -147 -9 -160 -11 -13 -2
-60 -6 -104 -10 -44 -3 -89 -8 -100 -10 -11 -3 -45 -7 -75 -10 -30 -3 -66 -7
-80 -9 -14 -3 -97 -17 -185 -31 -876 -145 -1719 -481 -2495 -994 -63 -42 -119
-79 -125 -83 -5 -5 -57 -43 -115 -86 -399 -293 -751 -621 -1080 -1002 -12 -14
-31 -36 -43 -50 -50 -57 -209 -262 -284 -365 -358 -495 -663 -1080 -860 -1650
-92 -266 -186 -607 -228 -825 -3 -14 -12 -59 -20 -100 -47 -235 -87 -559 -102
-830 -14 -239 -6 -847 12 -902 2 -7 6 -51 10 -98 3 -47 8 -98 10 -115 2 -16
11 -84 20 -150 151 -1107 612 -2190 1313 -3085 63 -80 119 -149 126 -155 6 -5
21 -23 33 -38 89 -115 393 -432 549 -572 43 -38 85 -77 94 -85 8 -8 60 -53
115 -98 55 -46 109 -91 120 -101 99 -83 394 -295 545 -393 539 -347 1163 -626
1775 -792 372 -102 774 -177 1075 -201 41 -3 84 -8 95 -10 125 -25 930 -25
1085 -1 14 3 59 7 100 11 41 3 140 15 220 26 855 115 1638 386 2413 833 56 33
113 67 127 76 14 10 86 57 160 106 74 49 140 92 145 97 6 4 60 44 120 89 101
74 203 153 264 203 63 52 180 154 221 192 25 23 56 51 70 63 50 43 260 253
351 352 52 56 99 106 104 112 9 9 43 49 197 234 66 79 241 321 335 462 320
480 574 1002 759 1560 66 197 163 562 190 710 2 14 11 59 19 100 17 87 42 236
50 298 36 279 41 333 55 582 8 141 5 634 -4 735 -3 28 -8 84 -11 125 -8 96
-14 156 -20 200 -3 19 -7 58 -11 85 -32 275 -117 680 -204 978 -58 197 -163
500 -215 622 -8 17 -34 80 -60 140 -99 232 -259 542 -400 775 -175 290 -446
662 -636 875 -226 253 -364 392 -613 620 -6 6 -40 35 -76 65 -36 30 -67 57
-70 60 -32 35 -424 327 -491 367 -16 10 -29 21 -29 25 0 4 -4 8 -9 8 -5 0 -49
26 -98 58 -433 286 -990 550 -1528 722 -378 121 -770 208 -1145 255 -171 21
-193 23 -290 30 -47 4 -101 9 -120 11 -37 6 -646 14 -652 9z"/>
</g>
</svg>
